<?xml version="1.0" encoding="utf-8"?>
<!-- Generator: Adobe Illustrator 26.3.1, SVG Export Plug-In . SVG Version: 6.00 Build 0)  -->
<svg version="1.1" id="Layer_1" xmlns="http://www.w3.org/2000/svg" xmlns:xlink="http://www.w3.org/1999/xlink" x="0px" y="0px"
	 viewBox="0 0 223.7 62.5" style="enable-background:new 0 0 223.7 62.5;" xml:space="preserve">
<style type="text/css">
	.st0{fill:#FFFFFF;}
</style>
<g>
	<rect width="223.7" height="62.5"/>
	<g>
		<path class="st0" d="M12.6,34.5L12.3,34c0.7,0,1.3-0.6,1.3-1.4V13.2c0-0.7-0.6-1.4-1.3-1.4l0.3-0.5h19.2c5.9,0,7.1,8.7-1.9,9.6
			l8.8,3.5c2.4,4.3-0.5,10.1-6.1,10.1H12.6z M20.1,18.1h2.6l5.6,2.2c3.2-1.9,2.5-8.3-2.2-8.3h-6V18.1z M25.9,20.9h-5.8v13h6.3
			c3.7,0,6.4-2.7,6.4-6.4C32.8,23.6,29.6,20.9,25.9,20.9z"/>
		<path class="st0" d="M47.9,20c-0.7,1-1.1,2.1-1.1,3.3c0,4.4,5.6,8.1,12.5,8.1c2.2,0,4.3-0.4,6.1-1c-2,2.8-6.3,4.7-11.4,4.7
			c-6.9,0-12.5-3.6-12.5-8.1C41.5,24,44.1,21.3,47.9,20c2-2.8,6.3-4.7,11.4-4.7c2.3,0,4.5,0.4,6.4,1.1l-3.9,4.3
			c-2.1-1.1-4.8-1.7-7.8-1.7C51.8,18.9,49.7,19.3,47.9,20z"/>
		<path class="st0" d="M75.1,32.6c0,0.7,0.6,1.4,1.3,1.4l-0.3,0.5c-2.9,0-5.8,0-8.6,0L67.2,34c0.7,0,1.3-0.6,1.3-1.4V14.2
			c0-0.7-0.6-1.4-1.3-1.4l0.3-0.5l7.6-1v15.5L83,15.8h8l-3.3,4.6h-5.3c-1.1,0-2.1,0.3-2.9,1.4l-1.1,1.6h4.7l8.6,11.1h-8.2l-6.7-8.9
			L75.1,28V32.6z"/>
		<path class="st0" d="M98.7,11.9c4.1-1,8.6-1.5,12.8-0.3c7,2,8.3,9,1.7,11.7c-5.3,2.2-10.5,5-15.7,7.4c-1.1,0.5-1.7,1.5-1.7,2.7
			v0.6h11.4c5.4,0,8.4-3.7,10.3-7.8l0.3,0.1l-1.9,8.3H93.9L93.6,34c0.7,0,1.3-0.6,1.3-1.4v-6.2c0-1.4,0.8-2.7,2.1-3.2
			c4.2-2,9.3-4.1,13.2-6.2c6.1-3.3,0.7-6.2-4.4-4.6c-3.8,1.2-8.1,4.1-11,6.5l-0.3-0.1l2.1-3.5L98.7,11.9z"/>
		<path class="st0" d="M120.8,34.5l-0.3-0.5c0.7,0,1.3-0.6,1.3-1.4V13.2c0-0.7-0.6-1.4-1.3-1.4l0.3-0.5H140c6,0,7.1,8.7-1.9,9.6
			l8.8,3.5c2.4,4.3-0.5,10.1-6.1,10.1H120.8z M128.4,18.1h2.6l5.6,2.2c3.2-1.9,2.5-8.3-2.2-8.3h-6V18.1z M134.2,20.9h-5.8v13h6.3
			c3.7,0,6.4-2.7,6.4-6.4C141.1,23.6,137.8,20.9,134.2,20.9z"/>
		<path class="st0" d="M157.8,32.6c0,0.7,0.6,1.4,1.3,1.4l-0.3,0.5c-2.9,0-5.8,0-8.6,0l-0.3-0.5c0.7,0,1.3-0.6,1.3-1.4V14.2
			c0-0.7-0.6-1.4-1.3-1.4l0.3-0.5l7.6-1C157.8,18.5,157.8,25.5,157.8,32.6z"/>
		<path class="st0" d="M167.6,20c-0.7,1-1.1,2.1-1.1,3.3c0,4.4,5.6,8.1,12.5,8.1c2.2,0,4.3-0.4,6.1-1c-2,2.8-6.3,4.7-11.4,4.7
			c-6.9,0-12.5-3.6-12.5-8.1C161.2,24,163.8,21.3,167.6,20c2-2.8,6.3-4.7,11.4-4.7c2.3,0,4.5,0.4,6.4,1.1l-3.9,4.3
			c-2.1-1.1-4.8-1.7-7.8-1.7C171.5,18.9,169.4,19.3,167.6,20z"/>
		<path class="st0" d="M194.8,32.6c0,0.7,0.6,1.4,1.3,1.4l-0.3,0.5c-2.9,0-5.8,0-8.6,0L187,34c0.7,0,1.3-0.6,1.3-1.4V14.2
			c0-0.7-0.6-1.4-1.3-1.4l0.3-0.5l7.6-1v15.5l7.9-11.1h8l-3.3,4.6h-5.3c-1.1,0-2.1,0.3-2.9,1.4l-1.1,1.6h4.7l8.6,11.1h-8.2l-6.7-8.9
			l-1.8,2.5V32.6z"/>
	</g>
	<g>
		<path class="st0" d="M18.3,49.1l-0.6-1.5h-2.9l-0.6,1.5h-0.9l2.3-6.2h1.3l2.3,6.2H18.3z M15.1,46.9c0.2,0,0.4,0,0.5,0s0.3,0,0.4,0
			c0.1,0,0.3,0,0.4,0c0.1,0,0.2,0,0.3,0c0.1,0,0.2,0,0.3,0.1c0.1,0,0.2,0.1,0.3,0.1c0.1,0,0.2,0.1,0.2,0.2c0.1,0.1,0.1,0.2,0.2,0.3
			l-1.4-3.8h0L15.1,46.9z"/>
		<path class="st0" d="M23.8,47c0.1,0.3,0.2,0.5,0.4,0.7s0.4,0.3,0.7,0.4c0.3,0.1,0.6,0.1,0.9,0.1c0.3,0,0.6,0,0.8-0.1
			c0.2-0.1,0.4-0.2,0.6-0.3c0.2-0.1,0.3-0.3,0.4-0.5c0.1-0.2,0.2-0.4,0.3-0.6l0.8,0.2c-0.1,0.4-0.2,0.7-0.4,1s-0.4,0.5-0.7,0.7
			c-0.3,0.2-0.5,0.3-0.9,0.4c-0.3,0.1-0.7,0.1-1,0.1c-0.4,0-0.8-0.1-1.2-0.2c-0.4-0.1-0.7-0.3-0.9-0.6s-0.5-0.6-0.6-1
			s-0.2-0.9-0.2-1.4s0.1-1,0.2-1.4c0.2-0.4,0.4-0.7,0.6-1c0.3-0.3,0.6-0.5,0.9-0.6c0.4-0.1,0.8-0.2,1.2-0.2c0.4,0,0.7,0.1,1,0.1
			s0.6,0.2,0.9,0.4c0.3,0.2,0.5,0.4,0.7,0.7c0.2,0.3,0.3,0.6,0.4,1l-0.8,0.2c-0.1-0.2-0.1-0.4-0.3-0.6c-0.1-0.2-0.3-0.3-0.4-0.5
			c-0.2-0.1-0.4-0.2-0.6-0.3c-0.2-0.1-0.5-0.1-0.8-0.1c-0.3,0-0.6,0.1-0.9,0.2c-0.3,0.1-0.5,0.3-0.7,0.5c-0.2,0.2-0.3,0.4-0.4,0.7
			s-0.1,0.6-0.1,1C23.6,46.4,23.7,46.7,23.8,47z"/>
		<path class="st0" d="M34,47c0.1,0.3,0.2,0.5,0.4,0.7s0.4,0.3,0.7,0.4c0.3,0.1,0.6,0.1,0.9,0.1c0.3,0,0.6,0,0.8-0.1
			c0.2-0.1,0.4-0.2,0.6-0.3c0.2-0.1,0.3-0.3,0.4-0.5c0.1-0.2,0.2-0.4,0.3-0.6l0.8,0.2c-0.1,0.4-0.2,0.7-0.4,1s-0.4,0.5-0.7,0.7
			c-0.3,0.2-0.5,0.3-0.9,0.4c-0.3,0.1-0.7,0.1-1,0.1c-0.4,0-0.8-0.1-1.2-0.2c-0.4-0.1-0.7-0.3-0.9-0.6s-0.5-0.6-0.6-1S33,46.6,33,46
			s0.1-1,0.2-1.4c0.2-0.4,0.4-0.7,0.6-1c0.3-0.3,0.6-0.5,0.9-0.6c0.4-0.1,0.8-0.2,1.2-0.2c0.4,0,0.7,0.1,1,0.1s0.6,0.2,0.9,0.4
			c0.3,0.2,0.5,0.4,0.7,0.7c0.2,0.3,0.3,0.6,0.4,1l-0.8,0.2c-0.1-0.2-0.1-0.4-0.3-0.6c-0.1-0.2-0.3-0.3-0.4-0.5
			c-0.2-0.1-0.4-0.2-0.6-0.3c-0.2-0.1-0.5-0.1-0.8-0.1c-0.3,0-0.6,0.1-0.9,0.2c-0.3,0.1-0.5,0.3-0.7,0.5c-0.2,0.2-0.3,0.4-0.4,0.7
			s-0.1,0.6-0.1,1C33.8,46.4,33.9,46.7,34,47z"/>
		<path class="st0" d="M47.9,43.8h-3.8v2h3.7v0.7h-3.7v1.8h3.8v0.8h-4.6V43h4.6V43.8z"/>
		<path class="st0" d="M53.1,47.2c0,0.4,0.2,0.6,0.5,0.8c0.3,0.2,0.7,0.3,1.2,0.3c0.6,0,1-0.1,1.3-0.3c0.3-0.2,0.5-0.5,0.5-0.9
			c0-0.2-0.1-0.4-0.3-0.5c-0.2-0.1-0.5-0.2-0.8-0.3c-0.3-0.1-0.6-0.1-1-0.2c-0.4,0-0.7-0.1-1-0.2c-0.3-0.1-0.6-0.3-0.8-0.5
			c-0.2-0.2-0.3-0.5-0.3-0.9c0-0.3,0.1-0.6,0.2-0.8s0.3-0.4,0.5-0.6c0.2-0.2,0.5-0.3,0.8-0.3s0.6-0.1,1-0.1c0.3,0,0.6,0,0.9,0.1
			c0.3,0.1,0.5,0.2,0.7,0.3c0.2,0.1,0.4,0.3,0.5,0.5s0.2,0.5,0.2,0.7l-0.8,0.1c0-0.3-0.2-0.5-0.4-0.7c-0.2-0.2-0.6-0.3-1.1-0.3
			c-0.5,0-0.9,0.1-1.2,0.3c-0.3,0.2-0.4,0.4-0.4,0.8c0,0.2,0.1,0.4,0.3,0.5c0.2,0.1,0.5,0.2,0.8,0.2c0.3,0.1,0.6,0.1,1,0.2
			c0.4,0,0.7,0.1,1,0.2c0.3,0.1,0.6,0.3,0.8,0.5c0.2,0.2,0.3,0.5,0.3,0.9c0,0.2,0,0.4-0.1,0.7c-0.1,0.2-0.2,0.5-0.4,0.6
			c-0.2,0.2-0.5,0.4-0.8,0.5c-0.3,0.1-0.8,0.2-1.3,0.2c-0.5,0-0.9-0.1-1.2-0.2c-0.3-0.1-0.6-0.2-0.8-0.4c-0.2-0.2-0.3-0.4-0.4-0.6
			c-0.1-0.2-0.1-0.4-0.1-0.7L53.1,47.2z"/>
		<path class="st0" d="M67.8,46c0,0.5-0.1,1-0.2,1.4c-0.2,0.4-0.4,0.7-0.7,1s-0.6,0.5-1,0.6c-0.4,0.1-0.8,0.2-1.2,0.2
			c-0.4,0-0.8-0.1-1.2-0.2c-0.4-0.1-0.7-0.3-1-0.6s-0.5-0.6-0.7-1c-0.2-0.4-0.2-0.9-0.2-1.4s0.1-1,0.2-1.4c0.2-0.4,0.4-0.7,0.7-1
			c0.3-0.3,0.6-0.5,1-0.6c0.4-0.1,0.8-0.2,1.2-0.2c0.4,0,0.8,0.1,1.2,0.2c0.4,0.1,0.7,0.3,1,0.6c0.3,0.3,0.5,0.6,0.7,1
			C67.7,45,67.8,45.5,67.8,46z M67,46c0-0.4-0.1-0.7-0.2-1s-0.3-0.5-0.5-0.7c-0.2-0.2-0.4-0.4-0.7-0.5c-0.3-0.1-0.5-0.2-0.8-0.2
			c-0.3,0-0.5,0-0.8,0.2c-0.3,0.1-0.5,0.3-0.7,0.5c-0.2,0.2-0.4,0.4-0.5,0.7s-0.2,0.6-0.2,1s0.1,0.7,0.2,1s0.3,0.5,0.5,0.7
			c0.2,0.2,0.4,0.4,0.7,0.5c0.3,0.1,0.5,0.2,0.8,0.2c0.3,0,0.6-0.1,0.9-0.2s0.5-0.3,0.7-0.5c0.2-0.2,0.4-0.4,0.5-0.7S67,46.4,67,46z
			"/>
		<path class="st0" d="M76.9,46.3c0.1,0,0.1,0.1,0.2,0.1s0.1,0.1,0.1,0.2s0.1,0.2,0.1,0.3s0,0.2,0,0.4l0,1.8h-0.9v-1.7
			c0-0.2,0-0.3-0.1-0.4s-0.3-0.1-0.5-0.1l-2.8,0v2.2h-0.9V43H75c0.7,0,1.3,0.1,1.7,0.4c0.4,0.3,0.6,0.7,0.6,1.4c0,0.1,0,0.3,0,0.4
			c0,0.1-0.1,0.2-0.1,0.3c0,0.1-0.1,0.2-0.1,0.2c-0.1,0.1-0.1,0.1-0.2,0.2c-0.1,0.1-0.1,0.1-0.2,0.2c-0.1,0-0.2,0.1-0.3,0.1
			s-0.2,0.1-0.3,0.1c-0.1,0-0.2,0-0.3,0.1v0c0.1,0,0.2,0,0.3,0c0.1,0,0.2,0,0.3,0c0.1,0,0.2,0,0.3,0C76.7,46.2,76.8,46.3,76.9,46.3z
			 M73,43.7v2.4h1.8c0.2,0,0.5,0,0.7-0.1c0.2-0.1,0.4-0.1,0.5-0.3s0.3-0.2,0.3-0.4c0.1-0.1,0.1-0.3,0.1-0.5c0-0.2,0-0.4-0.1-0.6
			c-0.1-0.2-0.2-0.3-0.3-0.4s-0.3-0.2-0.5-0.2s-0.4-0.1-0.6-0.1H73z"/>
		<path class="st0" d="M81.7,43h0.9v6.2h-0.9V43z"/>
		<path class="st0" d="M93,46c0,0.5-0.1,1-0.2,1.4c-0.2,0.4-0.4,0.7-0.7,1s-0.6,0.5-1,0.6c-0.4,0.1-0.8,0.2-1.2,0.2
			c-0.4,0-0.8-0.1-1.2-0.2c-0.4-0.1-0.7-0.3-1-0.6s-0.5-0.6-0.7-1C87,47,86.9,46.6,86.9,46s0.1-1,0.2-1.4c0.2-0.4,0.4-0.7,0.7-1
			c0.3-0.3,0.6-0.5,1-0.6c0.4-0.1,0.8-0.2,1.2-0.2c0.4,0,0.8,0.1,1.2,0.2c0.4,0.1,0.7,0.3,1,0.6c0.3,0.3,0.5,0.6,0.7,1
			C92.9,45,93,45.5,93,46z M92.2,46c0-0.4-0.1-0.7-0.2-1s-0.3-0.5-0.5-0.7c-0.2-0.2-0.4-0.4-0.7-0.5c-0.3-0.1-0.5-0.2-0.8-0.2
			c-0.3,0-0.5,0-0.8,0.2c-0.3,0.1-0.5,0.3-0.7,0.5c-0.2,0.2-0.4,0.4-0.5,0.7s-0.2,0.6-0.2,1s0.1,0.7,0.2,1s0.3,0.5,0.5,0.7
			c0.2,0.2,0.4,0.4,0.7,0.5s0.5,0.2,0.8,0.2c0.3,0,0.6-0.1,0.9-0.2s0.5-0.3,0.7-0.5c0.2-0.2,0.4-0.4,0.5-0.7S92.2,46.4,92.2,46z"/>
		<path class="st0" d="M98.2,47.2c0,0.4,0.2,0.6,0.5,0.8c0.3,0.2,0.7,0.3,1.2,0.3c0.6,0,1-0.1,1.3-0.3c0.3-0.2,0.5-0.5,0.5-0.9
			c0-0.2-0.1-0.4-0.3-0.5c-0.2-0.1-0.5-0.2-0.8-0.3c-0.3-0.1-0.6-0.1-1-0.2c-0.4,0-0.7-0.1-1-0.2c-0.3-0.1-0.6-0.3-0.8-0.5
			c-0.2-0.2-0.3-0.5-0.3-0.9c0-0.3,0.1-0.6,0.2-0.8s0.3-0.4,0.5-0.6c0.2-0.2,0.5-0.3,0.8-0.3s0.6-0.1,1-0.1c0.3,0,0.6,0,0.9,0.1
			c0.3,0.1,0.5,0.2,0.7,0.3c0.2,0.1,0.4,0.3,0.5,0.5s0.2,0.5,0.2,0.7l-0.8,0.1c0-0.3-0.2-0.5-0.4-0.7c-0.2-0.2-0.6-0.3-1.1-0.3
			c-0.5,0-0.9,0.1-1.2,0.3c-0.3,0.2-0.4,0.4-0.4,0.8c0,0.2,0.1,0.4,0.3,0.5c0.2,0.1,0.5,0.2,0.8,0.2c0.3,0.1,0.6,0.1,1,0.2
			c0.4,0,0.7,0.1,1,0.2c0.3,0.1,0.6,0.3,0.8,0.5c0.2,0.2,0.3,0.5,0.3,0.9c0,0.2,0,0.4-0.1,0.7c-0.1,0.2-0.2,0.5-0.4,0.6
			c-0.2,0.2-0.5,0.4-0.8,0.5c-0.3,0.1-0.8,0.2-1.3,0.2c-0.5,0-0.9-0.1-1.2-0.2c-0.3-0.1-0.6-0.2-0.8-0.4c-0.2-0.2-0.3-0.4-0.4-0.6
			c-0.1-0.2-0.1-0.4-0.1-0.7L98.2,47.2z"/>
		<path class="st0" d="M115.1,43c0.4,0,0.7,0,0.9,0.1s0.5,0.2,0.7,0.4c0.2,0.2,0.3,0.4,0.4,0.6s0.2,0.5,0.2,0.9
			c0,0.2-0.1,0.5-0.2,0.7c-0.1,0.2-0.3,0.5-0.4,0.6c-0.2,0.2-0.4,0.3-0.7,0.5c-0.3,0.1-0.6,0.2-0.9,0.2h-1.8v2.2h-0.9V43H115.1z
			 M115,46.2c0.2,0,0.4,0,0.6-0.1c0.2-0.1,0.3-0.2,0.5-0.3c0.1-0.1,0.2-0.2,0.3-0.4c0.1-0.2,0.1-0.3,0.1-0.5c0-0.2,0-0.4-0.1-0.6
			c-0.1-0.2-0.2-0.3-0.3-0.4c-0.1-0.1-0.3-0.2-0.5-0.2c-0.2,0-0.4-0.1-0.6-0.1h-1.7v2.5H115z"/>
		<path class="st0" d="M125.6,49.1l-0.6-1.5h-2.9l-0.6,1.5h-0.9l2.3-6.2h1.3l2.3,6.2H125.6z M122.4,46.9c0.2,0,0.4,0,0.5,0
			c0.2,0,0.3,0,0.4,0c0.1,0,0.3,0,0.4,0c0.1,0,0.2,0,0.3,0c0.1,0,0.2,0,0.3,0.1c0.1,0,0.2,0.1,0.3,0.1s0.2,0.1,0.2,0.2
			c0.1,0.1,0.1,0.2,0.2,0.3l-1.4-3.8h0L122.4,46.9z"/>
		<path class="st0" d="M135.6,46.3c0.1,0,0.1,0.1,0.2,0.1s0.1,0.1,0.1,0.2c0,0.1,0.1,0.2,0.1,0.3s0,0.2,0,0.4l0,1.8h-0.9v-1.7
			c0-0.2,0-0.3-0.1-0.4s-0.3-0.1-0.5-0.1l-2.8,0v2.2h-0.9V43h2.8c0.7,0,1.3,0.1,1.7,0.4c0.4,0.3,0.6,0.7,0.6,1.4c0,0.1,0,0.3,0,0.4
			c0,0.1-0.1,0.2-0.1,0.3c0,0.1-0.1,0.2-0.1,0.2c-0.1,0.1-0.1,0.1-0.2,0.2c-0.1,0.1-0.1,0.1-0.2,0.2c-0.1,0-0.2,0.1-0.3,0.1
			s-0.2,0.1-0.3,0.1s-0.2,0-0.3,0.1v0c0.1,0,0.2,0,0.3,0s0.2,0,0.3,0s0.2,0,0.3,0C135.4,46.2,135.5,46.3,135.6,46.3z M131.7,43.7
			v2.4h1.8c0.2,0,0.5,0,0.7-0.1c0.2-0.1,0.4-0.1,0.5-0.3c0.1-0.1,0.3-0.2,0.3-0.4c0.1-0.1,0.1-0.3,0.1-0.5c0-0.2,0-0.4-0.1-0.6
			c-0.1-0.2-0.2-0.3-0.3-0.4c-0.1-0.1-0.3-0.2-0.5-0.2s-0.4-0.1-0.6-0.1H131.7z"/>
		<path class="st0" d="M145.3,49.1l-0.6-1.5h-2.9l-0.6,1.5h-0.9l2.3-6.2h1.3l2.3,6.2H145.3z M142.1,46.9c0.2,0,0.4,0,0.5,0
			c0.2,0,0.3,0,0.4,0c0.1,0,0.3,0,0.4,0c0.1,0,0.2,0,0.3,0c0.1,0,0.2,0,0.3,0.1c0.1,0,0.2,0.1,0.3,0.1s0.2,0.1,0.2,0.2
			c0.1,0.1,0.1,0.2,0.2,0.3l-1.4-3.8h0L142.1,46.9z"/>
		<path class="st0" d="M160.6,43h0.9v6.2h-0.9v-2.7h-3.5v2.7h-0.9V43h0.9v2.7h3.5V43z"/>
		<path class="st0" d="M171.9,46c0,0.5-0.1,1-0.2,1.4c-0.2,0.4-0.4,0.7-0.7,1s-0.6,0.5-1,0.6c-0.4,0.1-0.8,0.2-1.2,0.2
			c-0.4,0-0.8-0.1-1.2-0.2c-0.4-0.1-0.7-0.3-1-0.6s-0.5-0.6-0.7-1c-0.2-0.4-0.2-0.9-0.2-1.4s0.1-1,0.2-1.4c0.2-0.4,0.4-0.7,0.7-1
			c0.3-0.3,0.6-0.5,1-0.6c0.4-0.1,0.8-0.2,1.2-0.2c0.4,0,0.8,0.1,1.2,0.2c0.4,0.1,0.7,0.3,1,0.6c0.3,0.3,0.5,0.6,0.7,1
			C171.8,45,171.9,45.5,171.9,46z M171.1,46c0-0.4-0.1-0.7-0.2-1c-0.1-0.3-0.3-0.5-0.5-0.7c-0.2-0.2-0.4-0.4-0.7-0.5
			c-0.3-0.1-0.5-0.2-0.8-0.2c-0.3,0-0.5,0-0.8,0.2c-0.3,0.1-0.5,0.3-0.7,0.5c-0.2,0.2-0.4,0.4-0.5,0.7c-0.1,0.3-0.2,0.6-0.2,1
			s0.1,0.7,0.2,1c0.1,0.3,0.3,0.5,0.5,0.7c0.2,0.2,0.4,0.4,0.7,0.5s0.5,0.2,0.8,0.2c0.3,0,0.6-0.1,0.9-0.2s0.5-0.3,0.7-0.5
			c0.2-0.2,0.4-0.4,0.5-0.7C171,46.7,171.1,46.4,171.1,46z"/>
		<path class="st0" d="M181.6,43h0.9v6.2h-0.9v-3.8c0-0.2,0-0.4,0-0.6s0.1-0.4,0.1-0.6h0c0,0.2-0.1,0.4-0.1,0.6s-0.1,0.4-0.2,0.6
			l-1.6,3.8H179l-1.6-3.8c-0.1-0.2-0.1-0.4-0.2-0.6c-0.1-0.2-0.1-0.4-0.1-0.6h0c0,0.2,0.1,0.4,0.1,0.6s0,0.4,0,0.6v3.8h-0.9V43h0.9
			l2.1,5c0,0,0,0.1,0,0.2s0,0.1,0,0.2h0c0,0,0-0.1,0-0.2s0-0.1,0-0.2L181.6,43z"/>
		<path class="st0" d="M190.8,45.7c0.2,0.1,0.4,0.1,0.5,0.2c0.1,0.1,0.3,0.2,0.3,0.4c0.1,0.1,0.2,0.3,0.2,0.5c0,0.2,0.1,0.3,0.1,0.5
			c0,0.7-0.2,1.1-0.6,1.4c-0.4,0.3-1,0.4-1.7,0.4h-2.8V43h2.5c0.3,0,0.6,0,0.9,0.1s0.5,0.2,0.7,0.3c0.2,0.1,0.3,0.3,0.4,0.5
			c0.1,0.2,0.1,0.4,0.1,0.7c0,0.1,0,0.1,0,0.2c0,0.1-0.1,0.2-0.1,0.3c-0.1,0.1-0.1,0.2-0.2,0.3c-0.1,0.1-0.2,0.2-0.3,0.2
			c-0.1,0-0.1,0.1-0.2,0.1s-0.2,0-0.2,0v0c0.1,0,0.2,0,0.2,0S190.7,45.7,190.8,45.7z M187.8,43.8v1.9h2.1c0.3,0,0.6-0.1,0.7-0.2
			c0.1-0.2,0.2-0.4,0.2-0.7c0-0.2,0-0.3-0.1-0.4c-0.1-0.1-0.2-0.2-0.3-0.3c-0.1-0.1-0.3-0.1-0.4-0.2c-0.2,0-0.3,0-0.5,0H187.8z
			 M189.7,48.3c0.2,0,0.4,0,0.5-0.1c0.2,0,0.3-0.1,0.4-0.2c0.1-0.1,0.2-0.2,0.3-0.3c0.1-0.1,0.1-0.3,0.1-0.5c0-0.3-0.1-0.5-0.3-0.7
			c-0.2-0.1-0.5-0.2-0.9-0.2h-2.2v2H189.7z"/>
		<path class="st0" d="M201,46.3c0.1,0,0.1,0.1,0.2,0.1s0.1,0.1,0.1,0.2c0,0.1,0.1,0.2,0.1,0.3s0,0.2,0,0.4l0,1.8h-0.9v-1.7
			c0-0.2,0-0.3-0.1-0.4s-0.3-0.1-0.5-0.1l-2.8,0v2.2h-0.9V43h2.8c0.7,0,1.3,0.1,1.7,0.4c0.4,0.3,0.6,0.7,0.6,1.4c0,0.1,0,0.3,0,0.4
			c0,0.1-0.1,0.2-0.1,0.3c0,0.1-0.1,0.2-0.1,0.2c-0.1,0.1-0.1,0.1-0.2,0.2c-0.1,0.1-0.1,0.1-0.2,0.2c-0.1,0-0.2,0.1-0.3,0.1
			s-0.2,0.1-0.3,0.1s-0.2,0-0.3,0.1v0c0.1,0,0.2,0,0.3,0s0.2,0,0.3,0s0.2,0,0.3,0C200.8,46.2,200.9,46.3,201,46.3z M197.1,43.7v2.4
			h1.8c0.2,0,0.5,0,0.7-0.1c0.2-0.1,0.4-0.1,0.5-0.3c0.1-0.1,0.3-0.2,0.3-0.4c0.1-0.1,0.1-0.3,0.1-0.5c0-0.2,0-0.4-0.1-0.6
			c-0.1-0.2-0.2-0.3-0.3-0.4c-0.1-0.1-0.3-0.2-0.5-0.2s-0.4-0.1-0.6-0.1H197.1z"/>
		<path class="st0" d="M210.4,43.8h-3.8v2h3.7v0.7h-3.7v1.8h3.8v0.8h-4.6V43h4.6V43.8z"/>
	</g>
</g>
</svg>
