<?xml version="1.0" encoding="utf-8"?>
<!-- Generator: Adobe Illustrator 26.3.1, SVG Export Plug-In . SVG Version: 6.00 Build 0)  -->
<svg version="1.1" id="Layer_1" xmlns="http://www.w3.org/2000/svg" xmlns:xlink="http://www.w3.org/1999/xlink" x="0px" y="0px"
	 viewBox="0 0 231.2 55.6" style="enable-background:new 0 0 231.2 55.6;" xml:space="preserve">
<g>
	<g>
		<path d="M6.1,33.8l-0.3-0.5c0.8,0,1.5-0.7,1.5-1.5V10.6c0-0.8-0.7-1.5-1.5-1.5l0.3-0.5h21c6.5,0,7.8,9.4-2.1,10.4l9.6,3.8
			c2.6,4.7-0.6,11-6.7,11H6.1z M14.4,15.9h2.8l6.1,2.4c3.5-2,2.8-9.1-2.4-9.1h-6.5V15.9z M20.7,19h-6.3v14.2h6.9c4,0,6.9-3,6.9-7
			C28.2,22,24.7,19,20.7,19z"/>
		<path d="M44.7,18c-0.8,1.1-1.2,2.3-1.2,3.6c0,4.9,6.1,8.8,13.7,8.8c2.4,0,4.7-0.4,6.7-1.1c-2.2,3-6.9,5.1-12.4,5.1
			c-7.6,0-13.7-3.9-13.7-8.8C37.7,22.4,40.5,19.5,44.7,18c2.2-3,6.9-5.1,12.4-5.1c2.5,0,4.9,0.4,7,1.2l-4.2,4.7
			c-2.3-1.2-5.3-1.9-8.5-1.9C49,16.9,46.7,17.3,44.7,18z"/>
		<path d="M74.4,31.8c0,0.8,0.7,1.5,1.5,1.5l-0.3,0.5c-3.1,0-6.3,0-9.4,0l-0.3-0.5c0.8,0,1.5-0.7,1.5-1.5V11.7
			c0-0.8-0.7-1.5-1.5-1.5l0.3-0.5l8.3-1.1v16.9L83,13.5h8.7l-3.6,5h-5.7c-1.2,0-2.3,0.3-3.2,1.5L78,21.7h5.2l9.4,12.1h-8.9l-7.3-9.8
			l-1.9,2.7V31.8z"/>
		<path d="M100.1,9.2c4.5-1.1,9.4-1.6,13.9-0.3c7.7,2.1,9.1,9.8,1.9,12.8c-5.8,2.4-11.4,5.4-17.2,8c-1.2,0.5-1.9,1.6-1.9,2.9v0.6
			h12.5c5.9,0,9.2-4.1,11.2-8.5l0.3,0.1l-2,9.1H94.9l-0.3-0.5c0.8,0,1.5-0.7,1.5-1.5v-6.8c0-1.6,0.9-2.9,2.3-3.5
			c4.5-2.2,10.1-4.5,14.4-6.8c6.7-3.6,0.7-6.7-4.8-5c-4.2,1.3-8.8,4.5-12,7.1l-0.3-0.2l2.3-3.9L100.1,9.2z"/>
		<path d="M124.3,33.8l-0.3-0.5c0.8,0,1.5-0.7,1.5-1.5V10.6c0-0.8-0.7-1.5-1.5-1.5l0.3-0.5h21c6.5,0,7.8,9.4-2.1,10.4l9.6,3.8
			c2.6,4.7-0.6,11-6.7,11H124.3z M132.6,15.9h2.8l6.1,2.4c3.5-2,2.8-9.1-2.4-9.1h-6.5V15.9z M138.9,19h-6.3v14.2h6.9
			c4,0,6.9-3,6.9-7C146.4,22,142.9,19,138.9,19z"/>
		<path d="M164.7,31.8c0,0.8,0.7,1.5,1.5,1.5l-0.3,0.5c-3.1,0-6.3,0-9.4,0l-0.3-0.5c0.8,0,1.5-0.7,1.5-1.5V11.7
			c0-0.8-0.7-1.5-1.5-1.5l0.3-0.5l8.3-1.1C164.7,16.4,164.7,24.1,164.7,31.8z"/>
		<path d="M175.4,18c-0.8,1.1-1.2,2.3-1.2,3.6c0,4.9,6.1,8.8,13.7,8.8c2.4,0,4.7-0.4,6.7-1.1c-2.2,3-6.9,5.1-12.4,5.1
			c-7.6,0-13.7-3.9-13.7-8.8C168.4,22.4,171.2,19.5,175.4,18c2.2-3,6.9-5.1,12.4-5.1c2.5,0,4.9,0.4,7,1.2l-4.2,4.7
			c-2.3-1.2-5.3-1.9-8.5-1.9C179.6,16.9,177.4,17.3,175.4,18z"/>
		<path d="M205.1,31.8c0,0.8,0.7,1.5,1.5,1.5l-0.3,0.5c-3.1,0-6.3,0-9.4,0l-0.3-0.5c0.8,0,1.5-0.7,1.5-1.5V11.7
			c0-0.8-0.7-1.5-1.5-1.5l0.3-0.5l8.3-1.1v16.9l8.6-12.1h8.7l-3.6,5h-5.7c-1.2,0-2.3,0.3-3.2,1.5l-1.3,1.8h5.2l9.4,12.1h-8.9
			l-7.3-9.8l-1.9,2.7V31.8z"/>
	</g>
	<g>
		<path d="M12.4,49.8l-0.6-1.6H8.6L8,49.8h-1l2.5-6.7h1.4l2.5,6.7H12.4z M8.9,47.4c0.2,0,0.4,0,0.6,0c0.2,0,0.3,0,0.5,0s0.3,0,0.4,0
			c0.1,0,0.2,0,0.3,0c0.1,0,0.2,0,0.3,0.1s0.2,0.1,0.3,0.1c0.1,0.1,0.2,0.1,0.3,0.2s0.2,0.2,0.2,0.3l-1.6-4.2h0L8.9,47.4z"/>
		<path d="M18.4,47.5c0.1,0.3,0.3,0.6,0.5,0.8s0.4,0.4,0.7,0.5c0.3,0.1,0.6,0.2,1,0.2c0.3,0,0.6,0,0.9-0.1c0.3-0.1,0.5-0.2,0.7-0.3
			c0.2-0.1,0.4-0.3,0.5-0.5c0.1-0.2,0.2-0.4,0.3-0.7l0.9,0.2c-0.1,0.4-0.2,0.7-0.4,1s-0.4,0.5-0.7,0.7c-0.3,0.2-0.6,0.3-0.9,0.4
			c-0.3,0.1-0.7,0.1-1.1,0.2c-0.5,0-0.9-0.1-1.3-0.2s-0.7-0.3-1-0.6c-0.3-0.3-0.5-0.6-0.7-1.1c-0.2-0.4-0.3-0.9-0.3-1.5
			c0-0.6,0.1-1.1,0.3-1.5c0.2-0.4,0.4-0.8,0.7-1.1c0.3-0.3,0.6-0.5,1-0.6s0.8-0.2,1.3-0.2c0.4,0,0.8,0.1,1.1,0.2
			c0.4,0.1,0.7,0.2,0.9,0.4s0.5,0.4,0.7,0.7s0.3,0.6,0.4,1l-0.9,0.3c-0.1-0.2-0.2-0.5-0.3-0.7c-0.1-0.2-0.3-0.4-0.5-0.5
			c-0.2-0.1-0.4-0.3-0.7-0.3C21.2,44,20.9,44,20.6,44c-0.4,0-0.7,0.1-1,0.2s-0.5,0.3-0.7,0.5s-0.4,0.5-0.5,0.8s-0.2,0.7-0.2,1
			C18.2,46.9,18.3,47.2,18.4,47.5z"/>
		<path d="M29.5,47.5c0.1,0.3,0.3,0.6,0.5,0.8s0.4,0.4,0.7,0.5c0.3,0.1,0.6,0.2,1,0.2c0.3,0,0.6,0,0.9-0.1c0.3-0.1,0.5-0.2,0.7-0.3
			c0.2-0.1,0.4-0.3,0.5-0.5c0.1-0.2,0.2-0.4,0.3-0.7l0.9,0.2c-0.1,0.4-0.2,0.7-0.4,1s-0.4,0.5-0.7,0.7c-0.3,0.2-0.6,0.3-0.9,0.4
			c-0.3,0.1-0.7,0.1-1.1,0.2c-0.5,0-0.9-0.1-1.3-0.2s-0.7-0.3-1-0.6c-0.3-0.3-0.5-0.6-0.7-1.1c-0.2-0.4-0.3-0.9-0.3-1.5
			c0-0.6,0.1-1.1,0.3-1.5c0.2-0.4,0.4-0.8,0.7-1.1c0.3-0.3,0.6-0.5,1-0.6s0.8-0.2,1.3-0.2c0.4,0,0.8,0.1,1.1,0.2
			c0.4,0.1,0.7,0.2,0.9,0.4s0.5,0.4,0.7,0.7s0.3,0.6,0.4,1L34,45.6c-0.1-0.2-0.2-0.5-0.3-0.7c-0.1-0.2-0.3-0.4-0.5-0.5
			c-0.2-0.1-0.4-0.3-0.7-0.3C32.3,44,32,44,31.7,44c-0.4,0-0.7,0.1-1,0.2s-0.5,0.3-0.7,0.5s-0.4,0.5-0.5,0.8s-0.2,0.7-0.2,1
			C29.4,46.9,29.4,47.2,29.5,47.5z"/>
		<path d="M44.7,44h-4.1v2.2h4V47h-4v2h4.1v0.9h-5.1v-6.7h5.1V44z"/>
		<path d="M50.4,47.8c0,0.4,0.2,0.7,0.5,0.9c0.3,0.2,0.8,0.3,1.3,0.3c0.6,0,1.1-0.1,1.4-0.3s0.5-0.5,0.5-0.9c0-0.3-0.1-0.5-0.3-0.6
			s-0.5-0.2-0.8-0.3c-0.3-0.1-0.7-0.1-1.1-0.2c-0.4-0.1-0.8-0.1-1.1-0.2c-0.3-0.1-0.6-0.3-0.8-0.5c-0.2-0.2-0.3-0.5-0.3-0.9
			c0-0.3,0.1-0.6,0.2-0.9c0.1-0.3,0.3-0.5,0.6-0.6c0.2-0.2,0.5-0.3,0.9-0.4c0.3-0.1,0.7-0.1,1.1-0.1c0.3,0,0.7,0,1,0.1
			c0.3,0.1,0.6,0.2,0.8,0.3c0.2,0.2,0.4,0.3,0.5,0.6s0.2,0.5,0.3,0.8l-0.9,0.1c0-0.3-0.2-0.6-0.4-0.8c-0.3-0.2-0.7-0.3-1.2-0.3
			s-1,0.1-1.3,0.3c-0.3,0.2-0.5,0.5-0.5,0.8c0,0.2,0.1,0.4,0.3,0.5c0.2,0.1,0.5,0.2,0.8,0.3c0.3,0.1,0.7,0.1,1.1,0.2
			c0.4,0,0.8,0.1,1.1,0.3c0.3,0.1,0.6,0.3,0.8,0.5c0.2,0.2,0.3,0.6,0.3,1c0,0.2,0,0.5-0.1,0.7s-0.2,0.5-0.4,0.7
			c-0.2,0.2-0.5,0.4-0.9,0.5c-0.4,0.1-0.8,0.2-1.4,0.2c-0.5,0-1-0.1-1.3-0.2c-0.3-0.1-0.6-0.3-0.8-0.5c-0.2-0.2-0.4-0.4-0.5-0.6
			c-0.1-0.2-0.1-0.5-0.2-0.7L50.4,47.8z"/>
		<path d="M66.5,46.5c0,0.6-0.1,1.1-0.3,1.5c-0.2,0.4-0.4,0.8-0.7,1.1s-0.7,0.5-1.1,0.6c-0.4,0.1-0.8,0.2-1.3,0.2s-0.9-0.1-1.3-0.2
			c-0.4-0.1-0.8-0.4-1.1-0.6S60.2,48.4,60,48c-0.2-0.4-0.3-0.9-0.3-1.5c0-0.6,0.1-1.1,0.3-1.5c0.2-0.4,0.4-0.8,0.7-1.1
			c0.3-0.3,0.7-0.5,1.1-0.6s0.8-0.2,1.3-0.2c0.5,0,0.9,0.1,1.3,0.2c0.4,0.1,0.8,0.3,1.1,0.6c0.3,0.3,0.5,0.6,0.7,1.1
			C66.4,45.4,66.5,45.9,66.5,46.5z M65.5,46.5c0-0.4-0.1-0.8-0.2-1.1c-0.1-0.3-0.3-0.6-0.5-0.8c-0.2-0.2-0.5-0.4-0.8-0.5
			c-0.3-0.1-0.6-0.2-0.9-0.2c-0.3,0-0.6,0-0.9,0.2s-0.6,0.3-0.8,0.5c-0.2,0.2-0.4,0.5-0.5,0.8c-0.1,0.3-0.2,0.7-0.2,1.1
			s0.1,0.8,0.2,1.1s0.3,0.6,0.5,0.8c0.2,0.2,0.5,0.4,0.8,0.5s0.6,0.2,0.9,0.2c0.3,0,0.6-0.1,0.9-0.2s0.5-0.3,0.8-0.5
			c0.2-0.2,0.4-0.5,0.5-0.8C65.4,47.2,65.5,46.9,65.5,46.5z"/>
		<path d="M76.3,46.8c0.1,0,0.1,0.1,0.2,0.2c0.1,0.1,0.1,0.1,0.1,0.2c0,0.1,0.1,0.2,0.1,0.3c0,0.1,0,0.3,0,0.4l0,1.9h-1v-1.9
			c0-0.2,0-0.3-0.1-0.4s-0.3-0.1-0.5-0.1l-3,0v2.4h-0.9v-6.7h3.1c0.8,0,1.4,0.2,1.8,0.5c0.4,0.3,0.7,0.8,0.7,1.5c0,0.2,0,0.3,0,0.4
			c0,0.1-0.1,0.2-0.1,0.3s-0.1,0.2-0.2,0.2c-0.1,0.1-0.1,0.1-0.2,0.2c-0.1,0.1-0.1,0.1-0.2,0.2c-0.1,0.1-0.2,0.1-0.3,0.1
			c-0.1,0-0.2,0.1-0.3,0.1c-0.1,0-0.2,0-0.3,0.1v0c0.1,0,0.2,0,0.3,0c0.1,0,0.2,0,0.3,0s0.2,0,0.3,0C76.2,46.7,76.3,46.7,76.3,46.8z
			 M72.1,43.9v2.7h2c0.3,0,0.5,0,0.7-0.1c0.2-0.1,0.4-0.2,0.6-0.3c0.2-0.1,0.3-0.3,0.4-0.4c0.1-0.2,0.1-0.3,0.1-0.5
			c0-0.3,0-0.5-0.1-0.6s-0.2-0.3-0.3-0.4S75.1,44,74.9,44c-0.2,0-0.4-0.1-0.7-0.1H72.1z"/>
		<path d="M81.6,43.1h0.9v6.7h-0.9V43.1z"/>
		<path d="M94,46.5c0,0.6-0.1,1.1-0.3,1.5c-0.2,0.4-0.4,0.8-0.7,1.1s-0.7,0.5-1.1,0.6c-0.4,0.1-0.8,0.2-1.3,0.2s-0.9-0.1-1.3-0.2
			c-0.4-0.1-0.8-0.4-1.1-0.6s-0.5-0.6-0.7-1.1s-0.3-0.9-0.3-1.5c0-0.6,0.1-1.1,0.3-1.5c0.2-0.4,0.4-0.8,0.7-1.1
			c0.3-0.3,0.7-0.5,1.1-0.6c0.4-0.1,0.8-0.2,1.3-0.2c0.5,0,0.9,0.1,1.3,0.2c0.4,0.1,0.8,0.3,1.1,0.6c0.3,0.3,0.5,0.6,0.7,1.1
			C93.9,45.4,94,45.9,94,46.5z M93,46.5c0-0.4-0.1-0.8-0.2-1.1c-0.1-0.3-0.3-0.6-0.5-0.8c-0.2-0.2-0.5-0.4-0.8-0.5
			c-0.3-0.1-0.6-0.2-0.9-0.2c-0.3,0-0.6,0-0.9,0.2s-0.5,0.3-0.8,0.5c-0.2,0.2-0.4,0.5-0.5,0.8c-0.1,0.3-0.2,0.7-0.2,1.1
			s0.1,0.8,0.2,1.1c0.1,0.3,0.3,0.6,0.5,0.8c0.2,0.2,0.5,0.4,0.8,0.5C90,49,90.3,49,90.6,49c0.3,0,0.6-0.1,0.9-0.2s0.5-0.3,0.8-0.5
			c0.2-0.2,0.4-0.5,0.5-0.8C93,47.2,93,46.9,93,46.5z"/>
		<path d="M99.6,47.8c0,0.4,0.2,0.7,0.5,0.9c0.3,0.2,0.8,0.3,1.3,0.3c0.6,0,1.1-0.1,1.4-0.3s0.5-0.5,0.5-0.9c0-0.3-0.1-0.5-0.3-0.6
			s-0.5-0.2-0.8-0.3c-0.3-0.1-0.7-0.1-1.1-0.2c-0.4-0.1-0.8-0.1-1.1-0.2s-0.6-0.3-0.8-0.5c-0.2-0.2-0.3-0.5-0.3-0.9
			c0-0.3,0.1-0.6,0.2-0.9c0.1-0.3,0.3-0.5,0.6-0.6s0.5-0.3,0.9-0.4c0.3-0.1,0.7-0.1,1.1-0.1c0.3,0,0.7,0,1,0.1
			c0.3,0.1,0.6,0.2,0.8,0.3c0.2,0.2,0.4,0.3,0.5,0.6c0.1,0.2,0.2,0.5,0.2,0.8l-0.9,0.1c0-0.3-0.2-0.6-0.4-0.8
			c-0.3-0.2-0.7-0.3-1.2-0.3s-1,0.1-1.3,0.3c-0.3,0.2-0.5,0.5-0.5,0.8c0,0.2,0.1,0.4,0.3,0.5c0.2,0.1,0.5,0.2,0.8,0.3
			c0.3,0.1,0.7,0.1,1.1,0.2c0.4,0,0.8,0.1,1.1,0.3c0.3,0.1,0.6,0.3,0.8,0.5c0.2,0.2,0.3,0.6,0.3,1c0,0.2,0,0.5-0.1,0.7
			s-0.2,0.5-0.4,0.7c-0.2,0.2-0.5,0.4-0.9,0.5c-0.4,0.1-0.8,0.2-1.4,0.2c-0.5,0-1-0.1-1.3-0.2c-0.3-0.1-0.6-0.3-0.8-0.5
			c-0.2-0.2-0.4-0.4-0.5-0.6c-0.1-0.2-0.1-0.5-0.2-0.7L99.6,47.8z"/>
		<path d="M118.1,43.1c0.4,0,0.7,0,1,0.1s0.6,0.2,0.8,0.4s0.4,0.4,0.5,0.7c0.1,0.3,0.2,0.6,0.2,0.9c0,0.3-0.1,0.5-0.2,0.8
			c-0.1,0.3-0.3,0.5-0.5,0.7c-0.2,0.2-0.5,0.4-0.8,0.5s-0.6,0.2-1,0.2h-2v2.4h-0.9v-6.7H118.1z M118,46.6c0.2,0,0.4,0,0.6-0.1
			c0.2-0.1,0.4-0.2,0.5-0.3c0.1-0.1,0.3-0.3,0.4-0.4s0.1-0.3,0.1-0.5c0-0.2,0-0.4-0.1-0.6s-0.2-0.3-0.4-0.4
			c-0.1-0.1-0.3-0.2-0.5-0.2c-0.2-0.1-0.4-0.1-0.6-0.1h-1.9v2.7H118z"/>
		<path d="M129.5,49.8l-0.6-1.6h-3.2l-0.6,1.6h-1l2.5-6.7h1.4l2.5,6.7H129.5z M126,47.4c0.2,0,0.4,0,0.6,0c0.2,0,0.3,0,0.5,0
			s0.3,0,0.4,0c0.1,0,0.2,0,0.3,0c0.1,0,0.2,0,0.3,0.1s0.2,0.1,0.3,0.1c0.1,0.1,0.2,0.1,0.3,0.2c0.1,0.1,0.2,0.2,0.2,0.3l-1.6-4.2h0
			L126,47.4z"/>
		<path d="M140.4,46.8c0.1,0,0.1,0.1,0.2,0.2c0.1,0.1,0.1,0.1,0.1,0.2c0,0.1,0.1,0.2,0.1,0.3c0,0.1,0,0.3,0,0.4l0,1.9h-1v-1.9
			c0-0.2,0-0.3-0.1-0.4s-0.3-0.1-0.5-0.1l-3,0v2.4h-0.9v-6.7h3.1c0.8,0,1.4,0.2,1.8,0.5c0.4,0.3,0.7,0.8,0.7,1.5c0,0.2,0,0.3,0,0.4
			c0,0.1-0.1,0.2-0.1,0.3s-0.1,0.2-0.2,0.2c-0.1,0.1-0.1,0.1-0.2,0.2c-0.1,0.1-0.1,0.1-0.2,0.2c-0.1,0.1-0.2,0.1-0.3,0.1
			c-0.1,0-0.2,0.1-0.3,0.1c-0.1,0-0.2,0-0.3,0.1v0c0.1,0,0.2,0,0.3,0c0.1,0,0.2,0,0.3,0s0.2,0,0.3,0
			C140.3,46.7,140.3,46.7,140.4,46.8z M136.2,43.9v2.7h2c0.3,0,0.5,0,0.7-0.1c0.2-0.1,0.4-0.2,0.6-0.3c0.2-0.1,0.3-0.3,0.4-0.4
			c0.1-0.2,0.1-0.3,0.1-0.5c0-0.3,0-0.5-0.1-0.6c-0.1-0.2-0.2-0.3-0.3-0.4c-0.1-0.1-0.3-0.2-0.5-0.2c-0.2,0-0.4-0.1-0.7-0.1H136.2z"
			/>
		<path d="M151,49.8l-0.6-1.6h-3.2l-0.6,1.6h-1l2.5-6.7h1.4l2.5,6.7H151z M147.5,47.4c0.2,0,0.4,0,0.6,0c0.2,0,0.3,0,0.5,0
			c0.1,0,0.3,0,0.4,0c0.1,0,0.2,0,0.3,0c0.1,0,0.2,0,0.3,0.1s0.2,0.1,0.3,0.1c0.1,0.1,0.2,0.1,0.3,0.2c0.1,0.1,0.2,0.2,0.2,0.3
			l-1.6-4.2h0L147.5,47.4z"/>
		<path d="M167.7,43.1h0.9v6.7h-0.9v-2.9h-3.8v2.9h-0.9v-6.7h0.9V46h3.8V43.1z"/>
		<path d="M180.1,46.5c0,0.6-0.1,1.1-0.3,1.5s-0.4,0.8-0.7,1.1s-0.7,0.5-1.1,0.6c-0.4,0.1-0.8,0.2-1.3,0.2c-0.5,0-0.9-0.1-1.3-0.2
			c-0.4-0.1-0.8-0.4-1.1-0.6s-0.5-0.6-0.7-1.1s-0.3-0.9-0.3-1.5c0-0.6,0.1-1.1,0.3-1.5c0.2-0.4,0.4-0.8,0.7-1.1
			c0.3-0.3,0.7-0.5,1.1-0.6s0.8-0.2,1.3-0.2c0.5,0,0.9,0.1,1.3,0.2c0.4,0.1,0.8,0.3,1.1,0.6c0.3,0.3,0.5,0.6,0.7,1.1
			S180.1,45.9,180.1,46.5z M179.1,46.5c0-0.4-0.1-0.8-0.2-1.1c-0.1-0.3-0.3-0.6-0.5-0.8c-0.2-0.2-0.5-0.4-0.8-0.5s-0.6-0.2-0.9-0.2
			c-0.3,0-0.6,0-0.9,0.2s-0.6,0.3-0.8,0.5c-0.2,0.2-0.4,0.5-0.5,0.8c-0.1,0.3-0.2,0.7-0.2,1.1s0.1,0.8,0.2,1.1
			c0.1,0.3,0.3,0.6,0.5,0.8c0.2,0.2,0.5,0.4,0.8,0.5s0.6,0.2,0.9,0.2c0.3,0,0.6-0.1,0.9-0.2s0.5-0.3,0.8-0.5
			c0.2-0.2,0.4-0.5,0.5-0.8C179.1,47.2,179.1,46.9,179.1,46.5z"/>
		<path d="M190.6,43.1h1v6.7h-0.9v-4.1c0-0.2,0-0.4,0-0.6c0-0.2,0.1-0.4,0.1-0.6h0c0,0.2-0.1,0.4-0.2,0.6c-0.1,0.2-0.1,0.4-0.2,0.6
			l-1.7,4.2h-0.9l-1.7-4.2c-0.1-0.2-0.2-0.4-0.2-0.6c-0.1-0.2-0.1-0.4-0.2-0.6h0c0,0.2,0.1,0.4,0.1,0.6c0,0.2,0,0.4,0,0.6v4.1h-0.9
			v-6.7h1l2.3,5.5c0,0.1,0,0.1,0,0.2c0,0.1,0,0.1,0,0.2h0c0-0.1,0-0.1,0-0.2c0-0.1,0-0.1,0-0.2L190.6,43.1z"/>
		<path d="M200.7,46.1c0.2,0.1,0.4,0.2,0.6,0.3s0.3,0.2,0.4,0.4c0.1,0.2,0.2,0.3,0.2,0.5c0,0.2,0.1,0.4,0.1,0.6
			c0,0.7-0.2,1.2-0.7,1.6s-1,0.5-1.8,0.5h-3v-6.7h2.8c0.4,0,0.7,0,1,0.1c0.3,0.1,0.5,0.2,0.7,0.3c0.2,0.1,0.3,0.3,0.4,0.5
			c0.1,0.2,0.2,0.5,0.2,0.8c0,0.1,0,0.1,0,0.2c0,0.1-0.1,0.2-0.1,0.3c-0.1,0.1-0.1,0.2-0.2,0.3c-0.1,0.1-0.2,0.2-0.4,0.2
			c-0.1,0-0.2,0.1-0.2,0.1c-0.1,0-0.2,0-0.3,0v0c0.1,0,0.2,0,0.3,0C200.5,46.1,200.6,46.1,200.7,46.1z M197.4,44v2h2.3
			c0.4,0,0.6-0.1,0.8-0.3s0.2-0.4,0.2-0.7c0-0.2,0-0.4-0.1-0.5c-0.1-0.1-0.2-0.2-0.3-0.3c-0.1-0.1-0.3-0.1-0.5-0.2
			c-0.2,0-0.4-0.1-0.5-0.1H197.4z M199.5,49c0.2,0,0.4,0,0.6-0.1c0.2,0,0.3-0.1,0.5-0.2c0.1-0.1,0.2-0.2,0.3-0.4
			c0.1-0.2,0.1-0.3,0.1-0.5c0-0.3-0.1-0.6-0.3-0.7c-0.2-0.2-0.5-0.2-0.9-0.2h-2.4V49H199.5z"/>
		<path d="M211.8,46.8c0.1,0,0.1,0.1,0.2,0.2c0.1,0.1,0.1,0.1,0.1,0.2c0,0.1,0.1,0.2,0.1,0.3c0,0.1,0,0.3,0,0.4l0,1.9h-1v-1.9
			c0-0.2,0-0.3-0.1-0.4s-0.3-0.1-0.5-0.1l-3,0v2.4h-0.9v-6.7h3.1c0.8,0,1.4,0.2,1.8,0.5c0.4,0.3,0.7,0.8,0.7,1.5c0,0.2,0,0.3,0,0.4
			c0,0.1-0.1,0.2-0.1,0.3s-0.1,0.2-0.2,0.2c-0.1,0.1-0.1,0.1-0.2,0.2c-0.1,0.1-0.1,0.1-0.2,0.2c-0.1,0.1-0.2,0.1-0.3,0.1
			c-0.1,0-0.2,0.1-0.3,0.1c-0.1,0-0.2,0-0.3,0.1v0c0.1,0,0.2,0,0.3,0c0.1,0,0.2,0,0.3,0s0.2,0,0.3,0
			C211.7,46.7,211.7,46.7,211.8,46.8z M207.6,43.9v2.7h2c0.3,0,0.5,0,0.7-0.1c0.2-0.1,0.4-0.2,0.6-0.3c0.2-0.1,0.3-0.3,0.4-0.4
			c0.1-0.2,0.1-0.3,0.1-0.5c0-0.3,0-0.5-0.1-0.6c-0.1-0.2-0.2-0.3-0.3-0.4c-0.1-0.1-0.3-0.2-0.5-0.2c-0.2,0-0.4-0.1-0.7-0.1H207.6z"
			/>
		<path d="M222.1,44H218v2.2h4V47h-4v2h4.1v0.9h-5.1v-6.7h5.1V44z"/>
	</g>
</g>
</svg>
